<?xml version="1.0" encoding="utf-8"?>
<!-- Generator: Adobe Illustrator 20.1.0, SVG Export Plug-In . SVG Version: 6.00 Build 0)  -->
<svg version="1.1" id="Layer_1" xmlns="http://www.w3.org/2000/svg" xmlns:xlink="http://www.w3.org/1999/xlink" x="0px" y="0px"
	 viewBox="0 0 100 99" style="enable-background:new 0 0 100 99;" xml:space="preserve">
<style type="text/css">
	.st0{fill:#F9EDF5;}
</style>
<path class="st0" d="M63.6,0H36.4v25.6h27.2V0L63.6,0z M43.4,17.4c-2.5,0-4.5-2-4.5-4.5c0-2.5,2-4.5,4.5-4.5c2.5,0,4.5,2,4.5,4.5
	C47.9,15.4,45.9,17.4,43.4,17.4z M56.6,17.4c-2.5,0-4.5-2-4.5-4.5c0-2.5,2-4.5,4.5-4.5c2.5,0,4.5,2,4.5,4.5
	C61.1,15.4,59.1,17.4,56.6,17.4z M94.4,56.5c-0.4-8.7-4.1-14.8-8.7-18.3c-3.8-3-8-4.4-11.4-4.9v-3.1H25.8v3.1
	c-3.4,0.5-7.6,1.9-11.4,4.9C9.8,41.7,6,47.8,5.6,56.5C2.4,57.6,0,60.7,0,64.4c0,4.6,3.8,8.4,8.4,8.4v-3.7c-2.6,0-4.7-2.1-4.7-4.7
	c0-2.6,2.1-4.7,4.7-4.7c2.6,0,4.7,2.1,4.7,4.7h3.7c0-3.8-2.5-6.9-5.9-8c0.4-7.1,3.3-11.4,6.7-14.1c2.6-2.1,5.6-3.2,8.1-3.7v29.2h4.3
	v19.2c-4.9,1.7-8.4,6.4-8.4,11.9h25.2c0-5.5-3.5-10.1-8.4-11.9V67.9h23v19.2c-4.9,1.7-8.4,6.4-8.4,11.9h25.2
	c0-5.5-3.5-10.1-8.4-11.9V67.9h4.3V38.6c2.5,0.5,5.5,1.6,8.1,3.7c3.4,2.8,6.3,7,6.7,14.1c-3.4,1.1-5.9,4.2-5.9,8h3.7
	c0-2.6,2.1-4.7,4.7-4.7c2.6,0,4.7,2.1,4.7,4.7c0,2.6-2.1,4.7-4.7,4.7v3.7c4.6,0,8.4-3.8,8.4-8.4C100,60.7,97.6,57.6,94.4,56.5z
	 M46.4,55.4h-4.8v-4.8h4.8V55.4z M46.4,49.5h-4.8v-4.8h4.8V49.5z M52.4,55.4h-4.8v-4.8h4.8V55.4z M52.4,49.5h-4.8v-4.8h4.8V49.5z
	 M58.4,55.4h-4.8v-4.8h4.8V55.4z M58.4,49.5h-4.8v-4.8h4.8V49.5z M74,9.3c0-3.8-3.1-6.8-6.8-6.8v13.7C70.9,16.2,74,13.1,74,9.3z
	 M32.8,16.2V2.5c-3.8,0-6.8,3.1-6.8,6.8C26,13.1,29.1,16.2,32.8,16.2z"/>
</svg>
